# xmcd
#
# Track frame offsets: 
#        150
#        10752
#        21603
#        32955
#        42958
#        54111
#        65863
#        76314
#        90411
#        101544
#        111170
#        121942
#        130875
#        141498
#        152695
#        164367
#        176521
#        188542
#        203644
#        216374
#        227232
#        238662
#        250091
#        261283
#        274700
#
# Disc length: 3809 seconds
#
# Revision: 0
# Processed by: cddbd v1.5.2PL0 Copyright (c) Steve Scherf et al.
# Submitted via: ExactAudioCopyFreeDBPlugin 1.0
#
DISCID=5e0edf19
DTITLE=Carlos Gardel - Mano a mano . Ventarrón
DYEAR=2019
DGENRE=No, thanks.
TTITLE0=La última copa
TTITLE1=El poncho del amor
TTITLE2=Caminito
TTITLE3=Farolito viejo
TTITLE4=Vida amarga
TTITLE5=Te fuiste, hermano!
TTITLE6=La cumparsita
TTITLE7=Mano a mano
TTITLE8=Adiós muchachos
TTITLE9=Chorra
TTITLE10=Farabute
TTITLE11=Victoria
TTITLE12=Por que soy reo?
TTITLE13=Tango argentino
TTITLE14=Tras cartón
TTITLE15=Lo han visto con otra
TTITLE16=Viejo smoking
TTITLE17=Mi noche triste
TTITLE18=Vieja recova
TTITLE19=Contramarca
TTITLE20=Una año mas
TTITLE21=Intimas
TTITLE22=Murmullos
TTITLE23=Hágame el favor
TTITLE24=Araca, Paris
EXTD=
EXTT0=
EXTT1=
EXTT2=
EXTT3=
EXTT4=
EXTT5=
EXTT6=
EXTT7=
EXTT8=
EXTT9=
EXTT10=
EXTT11=
EXTT12=
EXTT13=
EXTT14=
EXTT15=
EXTT16=
EXTT17=
EXTT18=
EXTT19=
EXTT20=
EXTT21=
EXTT22=
EXTT23=
EXTT24=
PLAYORDER=
